<?xml version="1.0" standalone="no"?>
<!DOCTYPE svg PUBLIC "-//W3C//DTD SVG 20010904//EN"
 "http://www.w3.org/TR/2001/REC-SVG-20010904/DTD/svg10.dtd">
<svg version="1.0" xmlns="http://www.w3.org/2000/svg"
 width="700.000000pt" height="700.000000pt" viewBox="0 0 700.000000 700.000000"
 preserveAspectRatio="xMidYMid meet">
<metadata>
Created by potrace 1.14, written by Peter Selinger 2001-2017
</metadata>
<g transform="translate(0.000000,700.000000) scale(0.100000,-0.100000)"
fill="#000000" stroke="none">
<path d="M780 6993 c-315 -54 -600 -285 -719 -583 -58 -148 -61 -180 -61 -727
l1 -498 23 56 c121 291 366 549 665 699 323 161 768 210 1185 130 296 -57 521
-172 712 -364 112 -112 163 -183 228 -313 135 -271 182 -663 112 -935 -86
-336 -352 -651 -678 -803 -60 -27 -69 -35 -53 -41 11 -4 61 -24 112 -44 358
-145 602 -427 694 -800 21 -85 24 -118 24 -320 0 -248 -10 -321 -67 -500 -105
-327 -351 -606 -684 -773 -334 -168 -810 -218 -1240 -132 -446 90 -805 341
-1001 700 l-33 60 3 -525 c3 -513 3 -527 26 -598 52 -167 134 -304 253 -418
122 -118 255 -194 423 -240 68 -19 139 -19 2800 -19 2557 0 2734 1 2791 17
285 82 529 291 631 541 54 131 65 185 70 350 l6 157 -1542 0 -1541 0 0 228 1
227 855 950 c471 523 901 1003 956 1067 359 419 515 689 564 973 22 124 15
349 -15 459 -62 232 -211 421 -414 527 -287 149 -747 120 -1027 -66 -86 -57
-196 -173 -249 -263 -82 -137 -141 -355 -141 -519 l0 -73 -315 0 -315 0 0 34
c0 133 36 351 82 496 110 347 374 652 711 822 265 133 637 197 994 170 425
-32 728 -158 974 -402 254 -253 371 -570 356 -960 -15 -381 -186 -771 -549
-1252 -127 -169 -271 -335 -564 -654 -143 -154 -457 -495 -699 -758 -242 -262
-441 -481 -443 -486 -2 -7 418 -10 1157 -10 l1161 0 -2 2333 -3 2332 -23 73
c-92 290 -295 515 -562 621 -166 66 47 61 -2917 60 -1478 -1 -2699 -4 -2713
-6z"/>
<path d="M1317 5589 c-150 -16 -298 -68 -414 -147 -82 -56 -201 -186 -245
-268 -51 -95 -88 -230 -95 -341 l-6 -93 -278 0 -279 0 0 -1180 0 -1180 259 0
258 0 6 -93 c20 -306 190 -553 471 -683 272 -125 690 -123 961 5 299 142 455
427 455 833 0 420 -202 715 -572 837 -170 56 -230 63 -595 68 l-343 5 0 253 0
253 328 5 c349 5 394 10 548 62 258 87 437 263 520 515 27 82 28 92 29 290 0
179 -3 216 -22 292 -89 349 -316 530 -712 568 -119 11 -161 11 -274 -1z"/>
</g>
</svg>
