<svg version="1" xmlns="http://www.w3.org/2000/svg" width="933.333" height="933.333" viewBox="0 0 700.000000 700.000000"><path d="M77.3 1.5c-20 3.6-35.8 11.9-49.9 25.9-14.3 14.3-22.3 30-25.9 50.5-2.3 12.7-2.2 531.6 0 544.4 6.9 39.4 36.8 69.3 76.2 76.2 12.9 2.3 531.7 2.3 544.6 0 39.3-6.8 69.4-36.9 76.2-76.2 1.3-7.4 1.5-43 1.5-272.3 0-288.7.4-271.4-5.8-288.9C685.8 37.4 665 15.9 642 7 623.5-.1 651.2.6 353 .4 135.7.2 83.1.4 77.3 1.5zM408 244v196h219v50H352V48h56v196zM198 360.5V557h219l-.2 24.7-.3 24.8-137.2.3-137.3.2V164h56v196.5z"/></svg>